<svg version="1.1" id="Layer_1" xmlns="http://www.w3.org/2000/svg" xmlns:xlink="http://www.w3.org/1999/xlink" x="0px" y="0px"
	 width="100%" viewBox="0 0 1024 368" enable-background="new 0 0 1024 368" xml:space="preserve">
<path fill="#000000" opacity="1.000000" stroke="none" 
	d="
M1025.000000,303.583344 
	C1017.609680,301.440491 1009.816711,302.201752 1002.236450,301.571167 
	C983.836609,300.040497 965.343750,299.648224 946.933716,298.215302 
	C925.230530,296.526031 903.328857,296.968842 881.869568,292.538055 
	C871.582642,290.414093 862.162231,286.386139 854.392456,279.118500 
	C852.382507,277.238495 850.441284,277.485992 847.985168,277.968231 
	C820.094360,283.444214 791.984009,285.137543 763.567383,283.637268 
	C725.409790,281.622681 688.440918,273.943268 652.243469,262.051239 
	C651.630615,261.849915 650.972046,261.787354 650.311157,261.655304 
	C649.116760,263.498657 650.382446,264.950439 650.803528,266.432983 
	C655.283630,282.208710 654.731873,297.459351 645.444824,311.495514 
	C633.402649,329.695709 611.756653,337.476471 589.690857,331.623199 
	C562.256653,324.345825 545.444397,305.771729 535.511230,280.043457 
	C529.767456,265.166473 526.667236,249.710831 526.068298,233.818497 
	C525.895630,229.237747 524.874023,225.353882 522.002747,221.861008 
	C520.842224,220.449249 519.666199,218.989487 518.835754,217.377167 
	C514.263123,208.499191 507.067871,206.311401 497.429474,207.217636 
	C460.681122,210.672852 426.470215,221.534286 394.796234,240.513321 
	C391.732330,242.349197 391.073090,244.192596 392.241699,247.364120 
	C393.771637,251.516174 393.525940,255.918243 393.236938,260.226379 
	C392.933594,264.748199 391.332947,268.820374 386.807800,270.712402 
	C383.314178,272.173126 379.811646,271.561737 377.086975,268.852295 
	C373.583466,265.368317 371.885132,261.205719 373.257538,256.142883 
	C374.698669,250.826660 378.276154,247.095322 382.621643,244.217422 
	C386.049042,241.947586 385.830414,239.937561 383.778473,236.887405 
	C376.464630,226.015472 366.123108,219.451202 353.959290,215.375061 
	C342.331482,211.478516 330.203583,210.255676 318.107269,209.465210 
	C298.010834,208.151947 277.893463,207.166840 257.725525,207.250381 
	C225.734192,207.382904 193.899918,209.491074 162.125458,213.162323 
	C129.718567,216.906631 97.565842,221.898865 65.982040,230.220978 
	C45.501472,235.617462 25.580154,242.629974 5.993711,250.642075 
	C4.614842,251.206100 3.172093,251.613968 1.379522,252.047226 
	C1.000000,250.933334 1.000000,249.866653 1.000000,248.399994 
	C6.258523,247.443207 10.727399,244.651321 15.510637,242.785614 
	C50.712948,229.054932 87.157654,220.271057 124.453796,214.519714 
	C174.732483,206.766357 225.236069,202.545425 276.122650,203.776154 
	C298.079834,204.307205 320.062683,205.046356 341.772369,208.758636 
	C360.440613,211.950851 376.955139,219.087677 387.344147,236.136292 
	C389.466309,239.618774 391.547852,238.195892 393.965210,236.792023 
	C408.985321,228.069031 424.599030,220.642670 441.143280,215.246429 
	C461.333191,208.661072 481.946838,204.382645 503.230774,203.668777 
	C504.167877,203.637329 505.097107,203.371552 506.434479,203.147034 
	C504.266846,199.197830 501.361511,196.491547 498.673798,193.643646 
	C476.789429,170.454987 452.384888,149.988602 428.536896,128.928436 
	C410.173492,112.711662 392.059113,96.239418 374.696808,78.946793 
	C370.490387,74.757256 367.527985,70.066490 368.245270,63.931828 
	C369.043793,57.101833 372.590363,52.080097 379.209259,49.714863 
	C385.965515,47.300541 392.055237,48.764133 397.170074,53.727234 
	C408.294220,64.521301 418.861877,75.854126 429.329742,87.280640 
	C454.647156,114.916519 478.332245,144.032074 504.815399,170.610123 
	C516.592834,182.429779 529.045532,193.467941 542.702576,203.108826 
	C545.623230,205.170609 548.496948,206.250595 552.293579,206.374908 
	C574.744507,207.110123 596.088257,212.372940 615.813721,223.398865 
	C628.044983,230.235748 637.382751,240.065582 644.408508,252.078079 
	C646.118958,255.002426 648.187012,256.745758 651.407288,257.871826 
	C684.575684,269.470032 718.692444,276.712341 753.671631,279.482208 
	C783.305786,281.828827 812.888000,280.673462 842.228821,275.510101 
	C844.251709,275.154114 846.584045,275.213684 848.532532,273.100586 
	C843.886414,266.108398 841.066833,258.516174 841.621521,249.801514 
	C842.401123,237.553696 855.281677,225.481781 867.498657,225.743240 
	C879.661377,226.003555 883.052734,236.049393 881.884827,246.357300 
	C880.503174,258.551270 873.350708,267.011200 862.719116,272.735535 
	C861.005249,273.658295 858.909668,274.032593 857.590515,276.221619 
	C860.008057,279.918579 863.845520,281.899017 867.651794,283.820801 
	C877.956665,289.023621 889.149231,290.832001 900.467651,291.609711 
	C931.514587,293.743011 962.577271,295.652191 993.639526,297.555542 
	C1003.772156,298.176361 1013.922607,298.505829 1024.532471,298.984283 
	C1025.000000,300.388885 1025.000000,301.777802 1025.000000,303.583344 
M536.247314,208.324463 
	C529.867432,207.912338 523.503723,206.443161 516.712830,207.772522 
	C517.921570,211.360565 520.332886,213.744095 522.410217,216.196152 
	C527.696411,222.435760 530.347839,229.279282 530.186218,237.635193 
	C529.935547,250.587784 533.329773,263.030396 537.545715,275.148224 
	C545.490662,297.984406 559.119324,316.076447 582.187500,325.449005 
	C598.709412,332.161835 615.135559,332.241791 630.298035,321.743439 
	C648.458618,309.169159 654.484924,286.810181 646.461121,264.766754 
	C645.024536,260.820190 642.846497,258.524292 638.866638,257.046783 
	C608.787354,245.879974 580.285156,231.474091 553.285461,214.178619 
	C548.198181,210.919769 543.031555,208.895111 536.247314,208.324463 
M393.411102,92.072952 
	C407.511719,105.515816 422.065582,118.458199 436.674683,131.341858 
	C462.136688,153.796631 488.306580,175.508560 510.521027,201.388565 
	C511.397644,202.409836 512.338135,203.494553 513.773987,203.503891 
	C521.631836,203.555038 529.490234,203.528259 536.746399,203.528259 
	C531.485046,199.233475 525.448120,194.577072 519.711670,189.575928 
	C494.776031,167.836639 473.571808,142.542130 451.742218,117.852966 
	C433.323486,97.021431 414.904816,76.191414 395.006744,56.740269 
	C388.867432,50.738819 380.850616,50.705433 375.489166,56.322746 
	C370.338501,61.719173 370.646210,69.649269 376.458130,75.539330 
	C381.835602,80.989128 387.405487,86.249069 393.411102,92.072952 
M873.404236,230.924942 
	C870.289307,229.515381 867.157471,229.030731 863.722168,229.914108 
	C846.600830,234.316849 838.595886,253.200256 851.547913,270.416473 
	C852.932434,272.256836 854.436707,272.322601 856.328430,271.538147 
	C867.568542,266.877106 875.829956,259.547424 878.208069,247.010971 
	C879.320129,241.148697 878.315002,235.786285 873.404236,230.924942 
M614.382446,243.066696 
	C622.798462,246.649155 630.999390,250.804535 640.398743,253.460205 
	C629.539673,229.897232 581.996033,206.287323 555.088623,210.971802 
	C574.150208,223.179214 593.458740,233.807159 614.382446,243.066696 
M386.807007,245.982361 
	C381.832825,248.443481 378.234009,252.183868 376.652496,257.549072 
	C375.505127,261.441528 378.435364,266.626038 382.011353,267.531342 
	C385.539215,268.424500 389.081177,265.643311 389.456665,260.801331 
	C389.842712,255.823105 390.872253,250.564026 386.807007,245.982361 
z"/>
</svg>